<svg xmlns="http://www.w3.org/2000/svg" width="192" height="192" viewBox="0 0 192 192">
  <!-- Background -->
  <rect width="192" height="192" fill="#1f2937"/>
  
  <!-- Fire Icon -->
  <g transform="translate(96, 96)">
    <path d="M0-57.599999999999994 C28.799999999999997-48 38.400000000000006-28.799999999999997 38.400000000000006-9.600000000000001 
             C38.400000000000006 19.200000000000003 19.200000000000003 38.400000000000006 0 48
             C-19.200000000000003 38.400000000000006 -38.400000000000006 19.200000000000003 -38.400000000000006-9.600000000000001
             C-38.400000000000006-28.799999999999997 -28.799999999999997-48 0-57.599999999999994 Z" 
          fill="#f97316" stroke="#ea580c" stroke-width="2"/>
    <path d="M0-38.400000000000006 C15.36-32.64 23.04-19.200000000000003 23.04-3.84
             C23.04 15.36 9.600000000000001 28.799999999999997 0 34.56
             C-9.600000000000001 28.799999999999997 -23.04 15.36 -23.04-3.84
             C-23.04-19.200000000000003 -15.36-32.64 0-38.400000000000006 Z"
          fill="#fbbf24" stroke="#f59e0b" stroke-width="1.5"/>
  </g>
  
  <!-- Text (for larger icons) -->
  <text x="96" y="163.2" 
        font-family="Arial, sans-serif" 
        font-size="23.04" 
        font-weight="bold" 
        fill="#f3f4f6" 
        text-anchor="middle">FP TRACKER</text>
</svg>