<svg xmlns="http://www.w3.org/2000/svg" width="384" height="384" viewBox="0 0 384 384">
  <!-- Background -->
  <rect width="384" height="384" fill="#1f2937"/>
  
  <!-- Fire Icon -->
  <g transform="translate(192, 192)">
    <path d="M0-115.19999999999999 C57.599999999999994-96 76.80000000000001-57.599999999999994 76.80000000000001-19.200000000000003 
             C76.80000000000001 38.400000000000006 38.400000000000006 76.80000000000001 0 96
             C-38.400000000000006 76.80000000000001 -76.80000000000001 38.400000000000006 -76.80000000000001-19.200000000000003
             C-76.80000000000001-57.599999999999994 -57.599999999999994-96 0-115.19999999999999 Z" 
          fill="#f97316" stroke="#ea580c" stroke-width="2"/>
    <path d="M0-76.80000000000001 C30.72-65.28 46.08-38.400000000000006 46.08-7.68
             C46.08 30.72 19.200000000000003 57.599999999999994 0 69.12
             C-19.200000000000003 57.599999999999994 -46.08 30.72 -46.08-7.68
             C-46.08-38.400000000000006 -30.72-65.28 0-76.80000000000001 Z"
          fill="#fbbf24" stroke="#f59e0b" stroke-width="1.5"/>
  </g>
  
  <!-- Text (for larger icons) -->
  <text x="192" y="326.4" 
        font-family="Arial, sans-serif" 
        font-size="46.08" 
        font-weight="bold" 
        fill="#f3f4f6" 
        text-anchor="middle">FP TRACKER</text>
</svg>